# xmcd CD database file
#
# Track frame offsets:
#	150
#	25607
#	48955
#
# Disc length: 921 seconds
#
# Revision: 0
# Processed by: cddbd v1.5PL3 Copyright (c) Steve Scherf et al.
# Submitted via: CDex 1.50beta8
#
DISCID=17039703
DTITLE=kazami - リズム
DYEAR=2003
DGENRE=Pop
TTITLE0=リズム Featuring Sphere Of Influence
TTITLE1=リズム (DJ Watarai Mix)
TTITLE2=リズム (Original Ver.)
EXTD=YEAR: 2003
EXTT0=
EXTT1=
EXTT2=
PLAYORDER=
